<svg xmlns="http://www.w3.org/2000/svg" width="256" height="256" viewBox="0 0 256 256" fill="none">
  <defs>
    <linearGradient id="steelA" x1="70" y1="24" x2="186" y2="232" gradientUnits="userSpaceOnUse">
      <stop offset="0" stop-color="#2b2c2c"/>
      <stop offset="0.45" stop-color="#090909"/>
      <stop offset="1" stop-color="#010101"/>
    </linearGradient>
    <linearGradient id="steelB" x1="128" y1="16" x2="128" y2="236" gradientUnits="userSpaceOnUse">
      <stop offset="0" stop-color="#4b4d4c"/>
      <stop offset="0.35" stop-color="#151515"/>
      <stop offset="1" stop-color="#000"/>
    </linearGradient>
    <radialGradient id="crimsonGlow" cx="128" cy="132" r="86" gradientUnits="userSpaceOnUse">
      <stop offset="0" stop-color="#ff2a2a"/>
      <stop offset="0.34" stop-color="#b00013"/>
      <stop offset="0.68" stop-color="#310006"/>
      <stop offset="1" stop-color="#050000" stop-opacity="0"/>
    </radialGradient>
    <linearGradient id="redFacet" x1="128" y1="42" x2="128" y2="218" gradientUnits="userSpaceOnUse">
      <stop offset="0" stop-color="#ff4a4a"/>
      <stop offset="0.42" stop-color="#a00012"/>
      <stop offset="1" stop-color="#1a0004"/>
    </linearGradient>
    <filter id="glow" x="32" y="20" width="192" height="216" filterUnits="userSpaceOnUse" color-interpolation-filters="sRGB">
      <feGaussianBlur stdDeviation="3.5" result="blur"/>
      <feMerge>
        <feMergeNode in="blur"/>
        <feMergeNode in="SourceGraphic"/>
      </feMerge>
    </filter>
    <clipPath id="crystalClip">
      <path d="M128 14 172 69 202 138 128 240 54 138 84 69 128 14Z"/>
    </clipPath>
  </defs>

  <!-- transparent background by design -->

  <!-- outer aggressive side blades -->
  <path d="M46 123 70 78 84 155 62 185Z" fill="#080808" stroke="#303030" stroke-width="1.5"/>
  <path d="M210 123 186 78 172 155 194 185Z" fill="#080808" stroke="#303030" stroke-width="1.5"/>
  <path d="M70 78 88 143 84 155Z" fill="#242625"/>
  <path d="M186 78 168 143 172 155Z" fill="#242625"/>
  <path d="M62 185 91 173 128 240Z" fill="#030303" stroke="#1b1b1b" stroke-width="1"/>
  <path d="M194 185 165 173 128 240Z" fill="#030303" stroke="#1b1b1b" stroke-width="1"/>

  <!-- crimson interior glow -->
  <path d="M128 36 163 93 178 150 128 221 78 150 93 93Z" fill="url(#crimsonGlow)" filter="url(#glow)" opacity="0.9"/>

  <!-- main crystal shell -->
  <g clip-path="url(#crystalClip)">
    <path d="M128 14 84 69 54 138 128 240Z" fill="url(#steelA)"/>
    <path d="M128 14 172 69 202 138 128 240Z" fill="#050505"/>
    <path d="M128 14 101 78 128 54 155 78Z" fill="url(#steelB)"/>
    <path d="M84 69 101 78 83 150 54 138Z" fill="#141414"/>
    <path d="M172 69 155 78 173 150 202 138Z" fill="#0a0a0a"/>
    <path d="M101 78 128 54 155 78 146 128 128 112 110 128Z" fill="#111" stroke="#565656" stroke-width="1"/>

    <!-- central red reward gemstone -->
    <path d="M128 54 146 128 128 221 110 128Z" fill="url(#redFacet)"/>
    <path d="M128 54 128 112 110 128Z" fill="#ff3333" opacity="0.78"/>
    <path d="M128 54 146 128 128 112Z" fill="#550006" opacity="0.95"/>
    <path d="M110 128 128 112 128 160 84 151Z" fill="#7a000a" opacity="0.92"/>
    <path d="M146 128 128 112 128 160 172 151Z" fill="#220004" opacity="0.95"/>
    <path d="M84 151 128 160 128 221Z" fill="#210004"/>
    <path d="M172 151 128 160 128 221Z" fill="#090001"/>
    <path d="M110 128 84 151 101 78Z" fill="#0a0a0a" opacity="0.82"/>
    <path d="M146 128 172 151 155 78Z" fill="#070707" opacity="0.9"/>

    <!-- lower armored facets -->
    <path d="M54 138 84 151 128 240Z" fill="#070707" opacity="0.95"/>
    <path d="M202 138 172 151 128 240Z" fill="#010101" opacity="0.95"/>
    <path d="M84 151 105 177 128 240Z" fill="#111"/>
    <path d="M172 151 151 177 128 240Z" fill="#050505"/>
    <path d="M105 177 128 160 151 177 128 240Z" fill="#120002" opacity="0.95"/>
  </g>

  <!-- hard vector facet strokes -->
  <path d="M128 14 172 69 202 138 128 240 54 138 84 69 128 14Z" stroke="#171717" stroke-width="3" stroke-linejoin="miter"/>
  <path d="M128 14V240" stroke="#686868" stroke-width="1.2" opacity="0.55"/>
  <path d="M84 69 101 78 110 128 84 151 54 138" stroke="#4a4a4a" stroke-width="1" opacity="0.8"/>
  <path d="M172 69 155 78 146 128 172 151 202 138" stroke="#272727" stroke-width="1" opacity="0.9"/>
  <path d="M101 78 128 54 155 78" stroke="#8a8a8a" stroke-width="1" opacity="0.6"/>
  <path d="M110 128 128 112 146 128" stroke="#ff3333" stroke-width="1.4" opacity="0.7"/>
  <path d="M84 151 128 160 172 151" stroke="#b00013" stroke-width="1.3" opacity="0.8"/>
  <path d="M105 177 128 221 151 177" stroke="#ff1515" stroke-width="1" opacity="0.55"/>

  <!-- militaristic red slits -->
  <path d="M76 112 92 142 84 151Z" fill="#e00017" opacity="0.45"/>
  <path d="M180 112 164 142 172 151Z" fill="#e00017" opacity="0.45"/>
  <path d="M102 194 128 232 114 184Z" fill="#c00013" opacity="0.45"/>
  <path d="M154 194 128 232 142 184Z" fill="#c00013" opacity="0.33"/>

  <!-- sharp highlights -->
  <path d="M128 18 128 52" stroke="#d8d8d8" stroke-width="1.2" opacity="0.65"/>
  <path d="M134 70 142 125" stroke="#ffffff" stroke-width="1" opacity="0.65"/>
  <path d="M75 165 95 156" stroke="#c9c9c9" stroke-width="2" opacity="0.55"/>
  <path d="M181 165 161 156" stroke="#c9c9c9" stroke-width="2" opacity="0.55"/>
</svg>
