<svg xmlns="http://www.w3.org/2000/svg" width="256" height="256" viewBox="0 0 256 256" role="img" aria-label="Sci-fi mission contract scroll icon">
  <defs>
    <linearGradient id="redPanel" x1="0" y1="32" x2="0" y2="224" gradientUnits="userSpaceOnUse">
      <stop offset="0" stop-color="#9f1016"/>
      <stop offset="0.52" stop-color="#6f080d"/>
      <stop offset="1" stop-color="#b0171d"/>
    </linearGradient>
    <linearGradient id="blackMetal" x1="0" y1="0" x2="1" y2="1">
      <stop offset="0" stop-color="#191919"/>
      <stop offset="0.55" stop-color="#050505"/>
      <stop offset="1" stop-color="#2a2a2a"/>
    </linearGradient>
    <linearGradient id="darkEdge" x1="0" y1="0" x2="0" y2="1">
      <stop offset="0" stop-color="#2a2a2a"/>
      <stop offset="1" stop-color="#000000"/>
    </linearGradient>
    <linearGradient id="curlRed" x1="45" y1="193" x2="219" y2="222" gradientUnits="userSpaceOnUse">
      <stop offset="0" stop-color="#d51e26"/>
      <stop offset="0.48" stop-color="#7b090f"/>
      <stop offset="1" stop-color="#240204"/>
    </linearGradient>
    <filter id="hardShadow" x="-20%" y="-20%" width="140%" height="140%">
      <feDropShadow dx="0" dy="4" stdDeviation="2" flood-color="#000000" flood-opacity="0.55"/>
    </filter>
  </defs>

  <!-- Transparent SVG: no background rectangle -->

  <g filter="url(#hardShadow)" stroke-linejoin="miter" stroke-linecap="butt">
    <!-- Outer brutalist silhouette -->
    <path d="M61 39 L86 39 L94 52 L162 52 L170 39 L195 39 L218 71 L204 89 L204 174 L222 191 L206 219 L151 219 L128 243 L105 219 L50 219 L34 191 L52 174 L52 89 L38 71 Z"
          fill="url(#blackMetal)" stroke="#000" stroke-width="4"/>

    <!-- Side armored pillars -->
    <path d="M47 72 L68 51 L83 58 L78 206 L63 213 L44 190 L55 174 L55 90 Z"
          fill="#070707" stroke="#282828" stroke-width="2"/>
    <path d="M209 72 L188 51 L173 58 L178 206 L193 213 L212 190 L201 174 L201 90 Z"
          fill="#070707" stroke="#282828" stroke-width="2"/>

    <!-- Crimson slits in pillars -->
    <path d="M60 75 L66 69 L65 170 L59 181 Z" fill="#9b1117"/>
    <path d="M74 65 L79 68 L77 118 L71 110 Z" fill="#c01820"/>
    <path d="M196 75 L190 69 L191 170 L197 181 Z" fill="#9b1117"/>
    <path d="M182 65 L177 68 L179 118 L185 110 Z" fill="#c01820"/>

    <!-- Main contract parchment panel -->
    <path d="M79 63 L177 63 L190 76 L190 184 L176 197 L80 197 L66 184 L66 76 Z"
          fill="url(#redPanel)" stroke="#050505" stroke-width="5"/>

    <!-- Inset angular border -->
    <path d="M76 78 L84 70 L172 70 L180 78 L180 174 L170 187 L86 187 L76 174 Z"
          fill="none" stroke="#160102" stroke-width="3"/>
    <path d="M83 72 L100 72 L93 78 L83 78 Z" fill="#d21b22"/>
    <path d="M173 72 L156 72 L163 78 L173 78 Z" fill="#d21b22"/>
    <path d="M82 186 L101 186 L94 193 L86 193 Z" fill="#d21b22"/>
    <path d="M174 186 L155 186 L162 193 L170 193 Z" fill="#d21b22"/>

    <!-- Top armored crest -->
    <path d="M128 12 L145 49 L164 62 L150 79 L128 90 L106 79 L92 62 L111 49 Z"
          fill="url(#blackMetal)" stroke="#000" stroke-width="4"/>
    <path d="M128 24 L137 54 L128 78 L119 54 Z" fill="#c51a22"/>
    <path d="M128 24 L128 78 L119 54 Z" fill="#77090d"/>
    <path d="M128 12 L145 49 L128 24 L111 49 Z" fill="#232323" opacity="0.85"/>

    <!-- Top shoulder plates -->
    <path d="M81 43 L110 43 L123 55 L111 70 L84 68 L70 55 Z"
          fill="#101010" stroke="#2c2c2c" stroke-width="2"/>
    <path d="M175 43 L146 43 L133 55 L145 70 L172 68 L186 55 Z"
          fill="#101010" stroke="#2c2c2c" stroke-width="2"/>
    <path d="M93 51 L113 51 L119 57 L102 58 L98 55 L88 55 Z" fill="#c0171e"/>
    <path d="M163 51 L143 51 L137 57 L154 58 L158 55 L168 55 Z" fill="#c0171e"/>

    <!-- Bottom scroll roll -->
    <path d="M61 187 L178 187 Q195 187 204 199 L196 217 L59 217 Q47 217 43 206 Q44 193 61 187 Z"
          fill="url(#curlRed)" stroke="#050505" stroke-width="5"/>
    <path d="M43 206 Q45 192 59 188 L61 188 Q52 199 52 217 L50 217 Q43 213 43 206 Z"
          fill="#111" opacity="0.55"/>
    <path d="M178 187 Q206 185 216 205 Q211 223 187 221 Q202 215 202 205 Q201 195 178 187 Z"
          fill="#050505" stroke="#000" stroke-width="4"/>
    <path d="M190 196 Q207 196 209 206 Q207 216 190 216 Q199 211 199 206 Q199 201 190 196 Z"
          fill="#a71117" stroke="#070707" stroke-width="3"/>
    <path d="M198 201 Q206 203 204 210 Q202 215 194 214 Q199 210 199 206 Z"
          fill="#050505"/>

    <!-- Bottom spear plate -->
    <path d="M128 184 L146 221 L128 244 L110 221 Z"
          fill="url(#blackMetal)" stroke="#000" stroke-width="4"/>
    <path d="M128 198 L137 221 L128 236 L119 221 Z" fill="#c51a22"/>
    <path d="M128 198 L128 236 L119 221 Z" fill="#72070b"/>

    <!-- Abstract mission contract marks, no readable text -->
    <g fill="#050505">
      <path d="M88 97 L146 97 L158 109 L174 109 L174 114 L155 114 L142 102 L88 102 Z"/>
      <path d="M84 119 L124 119 L132 126 L163 126 L163 132 L80 132 L88 124 L124 124 L118 122 L84 122 Z"/>
      <path d="M89 143 L143 143 L153 150 L174 150 L170 156 L83 156 Z"/>
      <path d="M83 169 L130 169 L142 160 L169 160 L169 165 L145 165 L133 174 L83 174 Z"/>
      <path d="M99 83 L139 83 L147 89 L172 89 L169 94 L98 94 Z" opacity="0.85"/>
      <path d="M100 181 L139 181 L134 186 L100 186 Z" opacity="0.85"/>
      <path d="M153 132 L181 132 L172 139 L146 139 Z"/>
      <path d="M153 177 L181 177 L173 184 L148 184 Z"/>
    </g>

    <!-- Crack-like angular cuts -->
    <g fill="none" stroke="#250204" stroke-width="2" opacity="0.8">
      <path d="M170 84 L164 96 L172 104"/>
      <path d="M86 151 L97 147 L91 158"/>
      <path d="M174 154 L162 166 L157 178"/>
      <path d="M101 67 L111 81 L107 91"/>
    </g>

    <!-- Metal highlights -->
    <g fill="none" stroke="#333" stroke-width="2" opacity="0.75">
      <path d="M50 72 L69 53"/>
      <path d="M206 72 L187 53"/>
      <path d="M69 211 L52 189"/>
      <path d="M187 211 L204 189"/>
      <path d="M117 50 L128 21 L139 50"/>
    </g>

    <!-- Red accent cuts on lower armor -->
    <path d="M82 221 L104 221 L99 226 L85 226 Z" fill="#b3171d"/>
    <path d="M174 221 L152 221 L157 226 L171 226 Z" fill="#b3171d"/>
  </g>
</svg>
